<svg width="14" height="13" viewBox="0 0 14 13" fill="none" xmlns="http://www.w3.org/2000/svg">
<path d="M13.23 0H0.77C0.565783 0 0.369931 0.0753302 0.225528 0.209419C0.0811248 0.343507 0 0.52537 0 0.715V12.285C0 12.4746 0.0811248 12.6565 0.225528 12.7906C0.369931 12.9247 0.565783 13 0.77 13H7.476V7.9625H5.656V6.0125H7.476V4.55C7.4383 4.20664 7.48195 3.85978 7.6039 3.53375C7.72585 3.20772 7.92314 2.9104 8.18193 2.66267C8.44072 2.41493 8.75474 2.22277 9.10198 2.09965C9.44921 1.97654 9.82125 1.92546 10.192 1.95C10.7368 1.94651 11.2814 1.97255 11.823 2.028V3.783H10.71C9.828 3.783 9.66 4.173 9.66 4.7385V5.993H11.76L11.487 7.943H9.66V13H13.23C13.3311 13 13.4312 12.9815 13.5247 12.9456C13.6181 12.9096 13.703 12.857 13.7745 12.7906C13.846 12.7242 13.9027 12.6454 13.9414 12.5586C13.9801 12.4719 14 12.3789 14 12.285V0.715C14 0.621105 13.9801 0.528129 13.9414 0.441381C13.9027 0.354634 13.846 0.275813 13.7745 0.209419C13.703 0.143025 13.6181 0.0903583 13.5247 0.0544262C13.4312 0.0184941 13.3311 0 13.23 0Z" fill="white"/>
</svg>
