<svg width="21" height="21" viewBox="0 0 21 21" fill="none" xmlns="http://www.w3.org/2000/svg">
<path d="M19.3421 21C19.7818 21 20.2035 20.8253 20.5144 20.5144C20.8253 20.2035 21 19.7818 21 19.3421V15.4737C21 15.034 20.8253 14.6123 20.5144 14.3014C20.2035 13.9905 19.7818 13.8158 19.3421 13.8158C18.0489 13.8158 16.7779 13.6168 15.5621 13.2079C15.2714 13.1161 14.9612 13.1058 14.665 13.1778C14.3689 13.2499 14.0981 13.4018 13.8821 13.6168L12.2905 15.2084C9.5409 13.7079 7.28101 11.4481 5.78053 8.69842L7.36105 7.11789C7.81421 6.68684 7.98 6.04579 7.78105 5.42684C7.38316 4.2221 7.18421 2.95105 7.18421 1.65789C7.18421 1.21819 7.00954 0.796502 6.69862 0.485586C6.38771 0.174671 5.96602 0 5.52632 0H1.65789C1.21819 0 0.796502 0.174671 0.485586 0.485586C0.174671 0.796502 0 1.21819 0 1.65789C0 12.3237 8.67632 21 19.3421 21ZM1.65789 1.10526H5.52632C5.67288 1.10526 5.81345 1.16349 5.91709 1.26713C6.02072 1.37076 6.07895 1.51133 6.07895 1.65789C6.07895 3.07263 6.3 4.45421 6.73105 5.76947C6.78632 5.92421 6.77526 6.14526 6.59842 6.32211L4.42105 8.48842C6.24474 12.0584 8.91947 14.7332 12.5005 16.5789L14.6558 14.4016C14.8105 14.2468 15.0205 14.2026 15.2195 14.2579C16.5458 14.7 17.9274 14.9211 19.3421 14.9211C19.4887 14.9211 19.6292 14.9793 19.7329 15.0829C19.8365 15.1866 19.8947 15.3271 19.8947 15.4737V19.3421C19.8947 19.4887 19.8365 19.6292 19.7329 19.7329C19.6292 19.8365 19.4887 19.8947 19.3421 19.8947C9.28421 19.8947 1.10526 11.7158 1.10526 1.65789C1.10526 1.51133 1.16349 1.37076 1.26713 1.26713C1.37076 1.16349 1.51133 1.10526 1.65789 1.10526Z" fill="#F20003"/>
</svg>
