<svg width="22" height="26" viewBox="0 0 22 26" fill="none" xmlns="http://www.w3.org/2000/svg">
<path d="M4.51981 3.90254C6.34407 2.02963 8.80015 0.986615 11.3543 1.00013C13.9085 1.01364 16.3544 2.0826 18.1605 3.97471C19.9666 5.86682 20.987 8.42919 20.9999 11.105C21.0128 13.7808 20.0172 16.3538 18.2294 18.265L13.1054 23.6329C12.6464 24.1137 12.0238 24.3838 11.3746 24.3838C10.7255 24.3838 10.1029 24.1137 9.64377 23.6329L4.51981 18.265C2.70193 16.3603 1.68066 13.7772 1.68066 11.0838C1.68066 8.39032 2.70193 5.80718 4.51981 3.90254Z" stroke="#F20003" stroke-width="1.5" stroke-linejoin="round"/>
<path d="M11.3745 14.9305C13.4026 14.9305 15.0467 13.2081 15.0467 11.0834C15.0467 8.95872 13.4026 7.23633 11.3745 7.23633C9.34638 7.23633 7.70227 8.95872 7.70227 11.0834C7.70227 13.2081 9.34638 14.9305 11.3745 14.9305Z" stroke="#F20003" stroke-width="1.5" stroke-linecap="round" stroke-linejoin="round"/>
</svg>
