<svg width="32" height="33" viewBox="0 0 32 33" fill="none" xmlns="http://www.w3.org/2000/svg">
<path d="M28.4702 4.01255L3.37028 13.7651L10.815 16.8577C12.9908 17.7608 14.7195 19.4901 15.6219 21.6662L18.7145 29.1093L28.4702 4.01255ZM31.3176 5.06396L21.5619 30.1638C20.9453 31.7518 19.1708 32.5642 17.5983 31.983C17.215 31.8417 16.8651 31.6227 16.5706 31.3396C16.2761 31.0565 16.0434 30.7155 15.8871 30.338L12.7929 22.8918C12.1903 21.4421 11.0378 20.2901 9.58782 19.6882L2.14465 16.5956C0.59682 15.9528 -0.109264 14.166 0.567528 12.6027C0.733796 12.2206 0.973993 11.8751 1.27429 11.5862C1.57459 11.2973 1.92907 11.0706 2.31732 10.9192L27.4172 1.16355C27.9625 0.944409 28.5601 0.890324 29.1359 1.00801C29.7116 1.12571 30.2401 1.40998 30.6556 1.82552C31.0712 2.24106 31.3555 2.76954 31.4731 3.34529C31.5908 3.92105 31.5368 4.51869 31.3176 5.06396Z" fill="url(#paint0_linear_5182_523)"/>
<defs>
<linearGradient id="paint0_linear_5182_523" x1="15.9222" y1="0.947266" x2="15.9222" y2="32.1708" gradientUnits="userSpaceOnUse">
<stop stop-color="#262626"/>
<stop offset="1" stop-color="#8C8C8C"/>
</linearGradient>
</defs>
</svg>
