<svg width="23" height="15" viewBox="0 0 23 15" fill="none" xmlns="http://www.w3.org/2000/svg">
<path fill-rule="evenodd" clip-rule="evenodd" d="M22.0731 1.45833C22.0731 1.69868 21.9776 1.92919 21.8076 2.09914C21.6377 2.2691 21.4072 2.36458 21.1668 2.36458H1.8335C1.59314 2.36458 1.36264 2.2691 1.19268 2.09914C1.02273 1.92919 0.927246 1.69868 0.927246 1.45833C0.927246 1.21798 1.02273 0.987467 1.19268 0.817513C1.36264 0.647558 1.59314 0.552078 1.8335 0.552078H21.1668C21.4072 0.552078 21.6377 0.647558 21.8076 0.817513C21.9776 0.987467 22.0731 1.21798 22.0731 1.45833ZM22.0731 7.49999C22.0731 7.74035 21.9776 7.97085 21.8076 8.14081C21.6377 8.31076 21.4072 8.40624 21.1668 8.40624H1.8335C1.59314 8.40624 1.36264 8.31076 1.19268 8.14081C1.02273 7.97085 0.927246 7.74035 0.927246 7.49999C0.927246 7.25964 1.02273 7.02913 1.19268 6.85918C1.36264 6.68922 1.59314 6.59374 1.8335 6.59374H21.1668C21.4072 6.59374 21.6377 6.68922 21.8076 6.85918C21.9776 7.02913 22.0731 7.25964 22.0731 7.49999ZM22.0731 13.5417C22.0731 13.782 21.9776 14.0125 21.8076 14.1825C21.6377 14.3524 21.4072 14.4479 21.1668 14.4479H1.8335C1.59314 14.4479 1.36264 14.3524 1.19268 14.1825C1.02273 14.0125 0.927246 13.782 0.927246 13.5417C0.927246 13.3013 1.02273 13.0708 1.19268 12.9008C1.36264 12.7309 1.59314 12.6354 1.8335 12.6354H21.1668C21.4072 12.6354 21.6377 12.7309 21.8076 12.9008C21.9776 13.0708 22.0731 13.3013 22.0731 13.5417Z" fill="#F5F5F5"/>
</svg>
