<svg width="32" height="30" viewBox="0 0 32 30" fill="none" xmlns="http://www.w3.org/2000/svg">
<path d="M3.078 29.75C2.27183 29.75 1.59925 29.4805 1.06025 28.9415C0.52125 28.4025 0.251167 27.7299 0.25 26.9238V8.07625C0.25 7.27125 0.520083 6.59925 1.06025 6.06025C1.60042 5.52125 2.27242 5.25117 3.07625 5.25H10.75V2.82625C10.75 2.02125 11.0201 1.34867 11.5603 0.808504C12.1004 0.268337 12.773 -0.0011629 13.578 3.77155e-06H18.4238C19.2288 3.77155e-06 19.9013 0.269504 20.4415 0.808504C20.9817 1.3475 21.2512 2.02009 21.25 2.82625V5.25H28.9238C29.7288 5.25 30.4008 5.52009 30.9398 6.06025C31.4788 6.60042 31.7488 7.273 31.75 8.078V26.9238C31.75 27.7288 31.4799 28.4013 30.9398 28.9415C30.3996 29.4817 29.7276 29.7512 28.9238 29.75H3.078ZM3.078 28H28.9238C29.1921 28 29.4388 27.888 29.664 27.664C29.8892 27.44 30.0012 27.1927 30 26.922V8.078C30 7.8085 29.888 7.56117 29.664 7.33601C29.44 7.11084 29.1933 6.99884 28.9238 7H3.07625C2.80792 7 2.56117 7.11201 2.336 7.33601C2.11083 7.56001 1.99883 7.80734 2 8.078V26.9238C2 27.1921 2.112 27.4388 2.336 27.664C2.56 27.8892 2.80675 28.0012 3.07625 28M12.5 5.25H19.5V2.82625C19.5 2.55792 19.388 2.31117 19.164 2.086C18.94 1.86084 18.6933 1.74884 18.4238 1.75H13.5763C13.3079 1.75 13.0612 1.862 12.836 2.086C12.6108 2.31 12.4988 2.55675 12.5 2.82625V5.25ZM15.125 18.375V23.625H16.875V18.375H22.125V16.625H16.875V11.375H15.125V16.625H9.875V18.375H15.125Z" fill="url(#paint0_linear_5182_521)"/>
<defs>
<linearGradient id="paint0_linear_5182_521" x1="16" y1="0" x2="16" y2="29.75" gradientUnits="userSpaceOnUse">
<stop stop-color="#262626"/>
<stop offset="1" stop-color="#8C8C8C"/>
</linearGradient>
</defs>
</svg>
