<svg width="13" height="13" viewBox="0 0 13 13" fill="none" xmlns="http://www.w3.org/2000/svg">
<path d="M7.16821 0C7.89942 0.00194995 8.27055 0.00584986 8.59099 0.0149496L8.71708 0.0194995C8.86267 0.0246994 9.00631 0.0311992 9.17986 0.038999C9.87142 0.0714982 10.3433 0.180696 10.7573 0.341242C11.1863 0.506338 11.5477 0.729932 11.9091 1.09067C12.2397 1.41549 12.4955 1.80856 12.6585 2.24245C12.819 2.65649 12.9282 3.12837 12.9607 3.82061C12.9685 3.9935 12.975 4.13715 12.9802 4.2834L12.9841 4.40949C12.9939 4.72929 12.9978 5.10043 12.9991 5.83166L12.9997 6.31655V7.16803C13.0013 7.64213 12.9963 8.11623 12.9848 8.59019L12.9809 8.71629C12.9757 8.86254 12.9692 9.00618 12.9614 9.17908C12.9289 9.87131 12.8184 10.3425 12.6585 10.7572C12.4955 11.1911 12.2397 11.5842 11.9091 11.909C11.5843 12.2397 11.1912 12.4954 10.7573 12.6584C10.3433 12.819 9.87142 12.9282 9.17986 12.9607L8.71708 12.9802L8.59099 12.9841C8.27055 12.9932 7.89942 12.9977 7.16821 12.999L6.68333 12.9997H5.83252C5.35822 13.0014 4.88391 12.9964 4.40975 12.9847L4.28365 12.9808C4.12936 12.975 3.9751 12.9683 3.82088 12.9607C3.12931 12.9282 2.65744 12.819 2.24276 12.6584C1.80912 12.4953 1.41629 12.2396 1.09166 11.909C0.760796 11.5843 0.504815 11.1912 0.341603 10.7572C0.181061 10.3432 0.0718661 9.87131 0.0393677 9.17908L0.0198687 8.71629L0.0166189 8.59019C0.00463747 8.11623 -0.000779502 7.64213 0.000369699 7.16803V5.83166C-0.00142934 5.35756 0.00333759 4.88346 0.014669 4.40949L0.0192188 4.2834C0.0244185 4.13715 0.0309182 3.9935 0.0387178 3.82061C0.0712161 3.12837 0.180411 2.65714 0.340952 2.24245C0.504546 1.80839 0.760976 1.4153 1.09231 1.09067C1.41675 0.760188 1.80935 0.504436 2.24276 0.341242C2.65744 0.180696 3.12866 0.0714982 3.82088 0.038999C3.99377 0.0311992 4.13806 0.0246994 4.28365 0.0194995L4.40975 0.0155996C4.8837 0.00405116 5.35779 -0.000932531 5.83188 0.000649937L7.16821 0ZM6.50004 3.24992C5.63813 3.24992 4.81152 3.59232 4.20206 4.2018C3.5926 4.81128 3.25021 5.63791 3.25021 6.49984C3.25021 7.36177 3.5926 8.18841 4.20206 8.79788C4.81152 9.40736 5.63813 9.74976 6.50004 9.74976C7.36195 9.74976 8.18856 9.40736 8.79802 8.79788C9.40749 8.18841 9.74988 7.36177 9.74988 6.49984C9.74988 5.63791 9.40749 4.81128 8.79802 4.2018C8.18856 3.59232 7.36195 3.24992 6.50004 3.24992ZM6.50004 4.54989C6.75611 4.54985 7.00967 4.60024 7.24626 4.6982C7.48285 4.79615 7.69783 4.93975 7.87893 5.12079C8.06002 5.30183 8.20368 5.51677 8.30172 5.75333C8.39975 5.98989 8.45022 6.24345 8.45027 6.49952C8.45031 6.75559 8.39992 7.00916 8.30196 7.24576C8.20401 7.48235 8.06042 7.69734 7.87938 7.87844C7.69835 8.05954 7.48342 8.20321 7.24686 8.30124C7.01031 8.39927 6.75676 8.44975 6.50069 8.44979C5.98355 8.44979 5.48758 8.24435 5.1219 7.87867C4.75623 7.51298 4.55079 7.017 4.55079 6.49984C4.55079 5.98268 4.75623 5.4867 5.1219 5.12102C5.48758 4.75533 5.98355 4.54989 6.50069 4.54989M9.91302 2.27494C9.69754 2.27494 9.49089 2.36055 9.33852 2.51291C9.18616 2.66528 9.10056 2.87194 9.10056 3.08743C9.10056 3.30291 9.18616 3.50957 9.33852 3.66194C9.49089 3.81431 9.69754 3.89991 9.91302 3.89991C10.1285 3.89991 10.3351 3.81431 10.4875 3.66194C10.6399 3.50957 10.7255 3.30291 10.7255 3.08743C10.7255 2.87194 10.6399 2.66528 10.4875 2.51291C10.3351 2.36055 10.1285 2.27494 9.91302 2.27494Z" fill="white"/>
</svg>
