<svg width="13" height="13" viewBox="0 0 13 13" fill="none" xmlns="http://www.w3.org/2000/svg">
<path d="M11.9603 0H1.1108C0.517968 0 0 0.426562 0 1.01243V11.886C0 12.4751 0.517968 13 1.1108 13H11.9571C12.5531 13 13 12.4716 13 11.886V1.01243C13.0035 0.426562 12.5531 0 11.9603 0ZM4.0297 10.8361H2.16734V5.04563H4.0297V10.8361ZM3.16294 4.16522H3.14959C2.55357 4.16522 2.16763 3.72154 2.16763 3.16614C2.16763 2.60058 2.56372 2.16734 3.1731 2.16734C3.78247 2.16734 4.15535 2.59739 4.1687 3.16614C4.16841 3.72154 3.78247 4.16522 3.16294 4.16522ZM10.8361 10.8361H8.97376V7.67C8.97376 6.91147 8.70273 6.39321 8.02894 6.39321C7.51416 6.39321 7.20948 6.74143 7.07396 7.08065C7.02318 7.20252 7.00954 7.3685 7.00954 7.53797V10.8361H5.14718V5.04563H7.00954V5.85145C7.28057 5.46551 7.70394 4.91011 8.68909 4.91011C9.91161 4.91011 10.8364 5.71594 10.8364 7.45324L10.8361 10.8361Z" fill="white"/>
</svg>
