<svg width="24" height="19" viewBox="0 0 24 19" fill="none" xmlns="http://www.w3.org/2000/svg">
<path d="M11.1099 0V13.8821L23.3035 17.303L22.8454 18.968L8.53242 14.953C8.46363 16.048 7.98518 17.0756 7.19415 17.8271C6.40313 18.5787 5.35879 18.998 4.27305 19C1.91689 19 0 17.0629 0 14.6818C0 12.3008 1.91689 10.3636 4.27305 10.3636C5.12529 10.365 5.95766 10.6238 6.66321 11.1069C7.36876 11.59 7.91525 12.2752 8.23245 13.0746L9.40071 13.4019V1.72727H0V0H11.1099ZM14.9899 4.11436L24 6.72514L21.6285 15.0886L12.6166 12.4752L14.9881 4.11436H14.9899ZM16.1607 6.24927L14.7301 11.2912L20.4559 12.9494L21.8857 7.90918L16.1607 6.24927ZM4.27305 12.0909C2.85952 12.0909 1.70922 13.2534 1.70922 14.6818C1.70922 16.1103 2.85952 17.2727 4.27305 17.2727C5.68657 17.2727 6.83688 16.1103 6.83688 14.6818C6.83688 13.2534 5.68657 12.0909 4.27305 12.0909Z" fill="#F20003"/>
</svg>
