<svg width="40" height="40" viewBox="0 0 40 40" fill="none" xmlns="http://www.w3.org/2000/svg">
<path d="M18.8881 26.0758L30.0622 37.25C31.0206 38.1777 32.3051 38.6916 33.6389 38.6807C34.9727 38.6699 36.2487 38.1353 37.1919 37.1921C38.135 36.249 38.6696 34.9729 38.6805 33.6392C38.6913 32.3054 38.1775 31.0208 37.2497 30.0625L25.9855 18.7983M18.8881 26.0758L23.6721 20.2683C24.2797 19.5323 25.0904 19.0685 25.9874 18.8002C27.0416 18.4858 28.2165 18.4398 29.3282 18.5318C29.5709 18.5536 29.8163 18.5644 30.0642 18.5644C31.5056 18.5647 32.9242 18.2036 34.1902 17.5143C35.4561 16.825 36.5292 15.8294 37.3111 14.6184C38.0931 13.4075 38.5592 12.0199 38.6666 10.5824C38.7741 9.14497 38.5196 7.70349 37.9263 6.38975L31.6473 12.6688C30.5964 12.4267 29.6348 11.8939 28.8722 11.1314C28.1097 10.3688 27.5769 9.40715 27.3348 8.35625L33.6138 2.07725C32.2432 1.4581 30.7344 1.20813 29.2373 1.35214C27.7402 1.49616 26.3068 2.02916 25.0793 2.89825C23.8518 3.76734 22.8729 4.94231 22.2397 6.30656C21.6066 7.67081 21.3412 9.17691 21.4698 10.6754C21.6443 12.7378 21.3337 15.0148 19.7372 16.3296L19.5417 16.4925M18.8881 26.0758L9.966 36.9108C9.53358 37.4378 8.99559 37.8686 8.38666 38.1752C7.77772 38.4818 7.11133 38.6575 6.43038 38.691C5.74943 38.7246 5.06901 38.6151 4.43291 38.3698C3.79681 38.1244 3.21912 37.7486 2.73703 37.2666C2.25495 36.7845 1.87914 36.2068 1.6338 35.5707C1.38846 34.9346 1.27903 34.2542 1.31255 33.5732C1.34606 32.8922 1.52178 32.2259 1.8284 31.6169C2.13502 31.008 2.56574 30.47 3.09283 30.0376L16.1971 19.2468L8.32533 11.375H5.62475L1.31225 4.1875L4.18725 1.3125L11.3748 5.625V8.32558L19.5398 16.4906L16.1952 19.2448M32.2185 32.2188L27.1872 27.1875M6.32817 33.6563H6.3435V33.6716H6.32817V33.6563Z" stroke="url(#paint0_linear_5182_525)" stroke-width="1.5" stroke-linecap="round" stroke-linejoin="round"/>
<defs>
<linearGradient id="paint0_linear_5182_525" x1="19.9986" y1="1.3125" x2="19.9986" y2="38.6969" gradientUnits="userSpaceOnUse">
<stop stop-color="#262626"/>
<stop offset="0.663462" stop-color="#696969"/>
<stop offset="1" stop-color="#8C8C8C"/>
</linearGradient>
</defs>
</svg>
