<svg width="33" height="33" viewBox="0 0 33 33" fill="none" xmlns="http://www.w3.org/2000/svg">
<path d="M11.6254 0.978024C11.3668 0.978024 11.1188 1.08075 10.936 1.2636C10.7531 1.44644 10.6504 1.69444 10.6504 1.95302V6.75002H5.77539C5.5168 6.75002 5.26881 6.85275 5.08596 7.0356C4.90311 7.21844 4.80039 7.46644 4.80039 7.72502V15.6479L1.61409 16.5371C1.47763 16.5752 1.35112 16.6427 1.24337 16.7347C1.13563 16.8267 1.04924 16.9411 0.990211 17.0699C0.931185 17.1987 0.900947 17.3389 0.901599 17.4806C0.902252 17.6223 0.933781 17.7621 0.993991 17.8904L4.50789 25.3589C4.93698 24.8413 5.53127 24.4873 6.19074 24.3566L3.24819 18.1049L15.4474 14.706C16.1324 14.5151 16.8566 14.5151 17.5417 14.706L29.7428 18.1049L26.7398 24.3429C27.4005 24.4527 28.0035 24.7858 28.448 25.2867L32.0068 17.9001C32.0684 17.7716 32.1011 17.6312 32.1026 17.4887C32.1041 17.3462 32.0744 17.205 32.0154 17.0753C31.9565 16.9455 31.8698 16.8303 31.7615 16.7376C31.6532 16.645 31.526 16.5772 31.3886 16.539L28.2004 15.6498V7.72502C28.2004 7.46644 28.0977 7.21844 27.9148 7.0356C27.732 6.85275 27.484 6.75002 27.2254 6.75002H22.3504V1.95107C22.3504 1.69249 22.2477 1.44449 22.0648 1.26164C21.882 1.0788 21.634 0.976074 21.3754 0.976074L11.6254 0.978024ZM20.4004 6.75002H12.6004V2.92802H20.4004V6.75002ZM26.2504 8.70002V15.1058L18.0623 12.8243C17.0354 12.5382 15.9498 12.5382 14.9228 12.8243L6.75039 15.1077V8.70002H26.2504ZM27.202 27.0105L27.1961 26.991C27.1457 26.7894 27.0322 26.6091 26.8722 26.4765C26.7121 26.344 26.5139 26.266 26.3064 26.254C26.0989 26.242 25.893 26.2967 25.7188 26.41C25.5445 26.5233 25.411 26.6893 25.3378 26.8838L25.328 26.9033L25.289 27.0027C25.0412 27.562 24.7213 28.0864 24.3374 28.5627C23.6393 29.4207 22.6702 30.15 21.3754 30.15C20.0806 30.15 19.1095 29.4188 18.4075 28.5588C17.9998 28.0551 17.6638 27.4973 17.4091 26.9013L17.3993 26.8799C17.3286 26.6951 17.2033 26.5362 17.0401 26.4244C16.8769 26.3125 16.6835 26.2529 16.4857 26.2536C16.2878 26.2542 16.0949 26.315 15.9324 26.4279C15.7699 26.5408 15.6457 26.7005 15.5761 26.8857L15.5663 26.9052L15.5273 27.0047C15.4883 27.097 15.4272 27.2244 15.344 27.3869C15.1291 27.8034 14.8731 28.1973 14.5796 28.5627C13.8854 29.4207 12.9202 30.15 11.6254 30.15C10.3306 30.15 9.36339 29.4188 8.66529 28.5608C8.25895 28.0568 7.92427 27.499 7.67079 26.9033L7.66299 26.8838C7.58974 26.6893 7.45625 26.5213 7.28201 26.408C7.10776 26.2947 6.90187 26.2401 6.69438 26.2521C6.48688 26.264 6.28865 26.342 6.12859 26.4746C5.96853 26.6072 5.85503 26.7874 5.80464 26.9891L5.80074 27.0047L5.77344 27.0944C5.59611 27.6315 5.3334 28.1365 4.99539 28.59C4.39674 29.3895 3.44319 30.15 1.87539 30.15C1.6168 30.15 1.36881 30.2527 1.18596 30.4356C1.00311 30.6184 0.900391 30.8664 0.900391 31.125C0.900391 31.3836 1.00311 31.6316 1.18596 31.8145C1.36881 31.9973 1.6168 32.1 1.87539 32.1C4.20759 32.1 5.69154 30.9144 6.55539 29.76C6.65419 29.6287 6.74519 29.4981 6.82839 29.3681C6.92719 29.5072 7.03509 29.6482 7.15209 29.7912C8.03739 30.8832 9.50769 32.1 11.6254 32.1C13.7431 32.1 15.2095 30.8793 16.0948 29.7873C16.2404 29.6053 16.373 29.4272 16.4926 29.253C16.6161 29.4298 16.7506 29.6092 16.8962 29.7912C17.7874 30.8852 19.2577 32.1 21.3754 32.1C23.4931 32.1 24.9634 30.8832 25.8487 29.7912C25.9618 29.6521 26.0671 29.5143 26.1646 29.3778C26.2491 29.5091 26.3401 29.6417 26.4376 29.7756C27.3034 30.9378 28.7912 32.1293 31.1371 32.1C31.2651 32.0985 31.3916 32.0717 31.5093 32.0213C31.627 31.9709 31.7336 31.8978 31.8231 31.8062C31.9125 31.7146 31.9831 31.6062 32.0306 31.4873C32.0782 31.3685 32.1019 31.2414 32.1004 31.1133C32.0989 30.9853 32.0721 30.8588 32.0217 30.7411C31.9713 30.6234 31.8982 30.5168 31.8065 30.4273C31.7149 30.3379 31.6066 30.2673 31.4877 30.2198C31.3688 30.1722 31.2417 30.1485 31.1137 30.15C29.5478 30.1695 28.5982 29.411 28.0034 28.6115C27.6655 28.1535 27.4041 27.6438 27.2293 27.1022L27.202 27.0105Z" fill="url(#paint0_linear_5182_532)"/>
<defs>
<linearGradient id="paint0_linear_5182_532" x1="16.5015" y1="0.976074" x2="16.5015" y2="32.1006" gradientUnits="userSpaceOnUse">
<stop stop-color="#262626"/>
<stop offset="1" stop-color="#8C8C8C"/>
</linearGradient>
</defs>
</svg>
