<svg width="36" height="36" viewBox="0 0 36 36" fill="none" xmlns="http://www.w3.org/2000/svg">
<path d="M16.97 31.232H18.93V28.884C20.366 28.764 21.742 28.2487 23.058 27.338C24.374 26.4287 25.032 25.016 25.032 23.1C25.032 21.7 24.606 20.5067 23.754 19.52C22.902 18.5333 21.276 17.6067 18.876 16.74C16.672 15.9693 15.2633 15.3087 14.65 14.758C14.0367 14.2073 13.73 13.4213 13.73 12.4C13.73 11.3787 14.1287 10.5287 14.926 9.85C15.7233 9.17133 16.7813 8.83133 18.1 8.83C19.116 8.83 19.9627 9.06333 20.64 9.53C21.3173 9.99667 21.8653 10.5867 22.284 11.3L24.024 10.616C23.5547 9.65467 22.8667 8.84933 21.96 8.2C21.0533 7.55067 20.0773 7.18933 19.032 7.116V4.77H17.07V7.116C15.326 7.40533 14.006 8.05533 13.11 9.066C12.214 10.0767 11.768 11.188 11.772 12.4C11.772 13.8387 12.224 14.99 13.128 15.854C14.032 16.718 15.5567 17.538 17.702 18.314C19.854 19.1073 21.2993 19.8233 22.038 20.462C22.7767 21.1007 23.1467 21.98 23.148 23.1C23.148 24.508 22.6347 25.5213 21.608 26.14C20.5813 26.76 19.4793 27.07 18.302 27.07C17.1513 27.07 16.112 26.7347 15.184 26.064C14.2573 25.3933 13.5173 24.4387 12.964 23.2L11.202 23.96C11.7713 25.3307 12.5347 26.3987 13.492 27.164C14.4493 27.9293 15.6093 28.4693 16.972 28.784L16.97 31.232ZM18 36C15.5147 36 13.1773 35.5267 10.988 34.58C8.79867 33.632 6.894 32.348 5.274 30.728C3.65267 29.1067 2.36867 27.2013 1.422 25.012C0.474 22.8227 0 20.4853 0 18C0 15.5147 0.473333 13.1773 1.42 10.988C2.36667 8.79867 3.65133 6.894 5.274 5.274C6.89667 3.654 8.80133 2.36933 10.988 1.42C13.1787 0.473333 15.516 0 18 0C20.484 0 22.8213 0.473333 25.012 1.42C27.2013 2.368 29.106 3.65267 30.726 5.274C32.3473 6.894 33.6313 8.79867 34.578 10.988C35.526 13.1787 36 15.516 36 18C36 20.484 35.5267 22.8213 34.58 25.012C33.632 27.2013 32.348 29.106 30.728 30.726C29.1067 32.3473 27.2013 33.6313 25.012 34.578C22.8227 35.526 20.4853 36 18 36ZM18 34C22.4667 34 26.25 32.45 29.35 29.35C32.45 26.25 34 22.4667 34 18C34 13.5333 32.45 9.75 29.35 6.65C26.25 3.55 22.4667 2 18 2C13.5333 2 9.75 3.55 6.65 6.65C3.55 9.75 2 13.5333 2 18C2 22.4667 3.55 26.25 6.65 29.35C9.75 32.45 13.5333 34 18 34Z" fill="url(#paint0_linear_5182_538)"/>
<defs>
<linearGradient id="paint0_linear_5182_538" x1="18" y1="0" x2="18" y2="36" gradientUnits="userSpaceOnUse">
<stop stop-color="#262626"/>
<stop offset="1" stop-color="#8C8C8C"/>
</linearGradient>
</defs>
</svg>
