<svg width="38" height="26" viewBox="0 0 38 26" fill="none" xmlns="http://www.w3.org/2000/svg">
<path d="M0.3125 0.0625V14.4375H37.6875V11.5625H20.4375V8.6875H37.6875V5.8125H20.4375V2.9375H37.6875V0.0625H0.3125ZM3.1875 1.5C3.56875 1.5 3.93438 1.65145 4.20397 1.92103C4.47355 2.19062 4.625 2.55625 4.625 2.9375C4.625 3.31875 4.47355 3.68438 4.20397 3.95397C3.93438 4.22355 3.56875 4.375 3.1875 4.375C2.80625 4.375 2.44062 4.22355 2.17103 3.95397C1.90145 3.68438 1.75 3.31875 1.75 2.9375C1.75 2.55625 1.90145 2.19062 2.17103 1.92103C2.44062 1.65145 2.80625 1.5 3.1875 1.5ZM8.9375 1.5C9.31875 1.5 9.68438 1.65145 9.95397 1.92103C10.2235 2.19062 10.375 2.55625 10.375 2.9375C10.375 3.31875 10.2235 3.68438 9.95397 3.95397C9.68438 4.22355 9.31875 4.375 8.9375 4.375C8.55625 4.375 8.19062 4.22355 7.92103 3.95397C7.65145 3.68438 7.5 3.31875 7.5 2.9375C7.5 2.55625 7.65145 2.19062 7.92103 1.92103C8.19062 1.65145 8.55625 1.5 8.9375 1.5ZM14.6875 1.5C15.0687 1.5 15.4344 1.65145 15.704 1.92103C15.9735 2.19062 16.125 2.55625 16.125 2.9375C16.125 3.31875 15.9735 3.68438 15.704 3.95397C15.4344 4.22355 15.0687 4.375 14.6875 4.375C14.3063 4.375 13.9406 4.22355 13.671 3.95397C13.4015 3.68438 13.25 3.31875 13.25 2.9375C13.25 2.55625 13.4015 2.19062 13.671 1.92103C13.9406 1.65145 14.3063 1.5 14.6875 1.5ZM6.0625 5.8125C6.44375 5.8125 6.80938 5.96395 7.07897 6.23353C7.34855 6.50312 7.5 6.86875 7.5 7.25C7.5 7.63125 7.34855 7.99688 7.07897 8.26647C6.80938 8.53605 6.44375 8.6875 6.0625 8.6875C5.68125 8.6875 5.31562 8.53605 5.04603 8.26647C4.77645 7.99688 4.625 7.63125 4.625 7.25C4.625 6.86875 4.77645 6.50312 5.04603 6.23353C5.31562 5.96395 5.68125 5.8125 6.0625 5.8125ZM11.8125 5.8125C12.1937 5.8125 12.5594 5.96395 12.829 6.23353C13.0985 6.50312 13.25 6.86875 13.25 7.25C13.25 7.63125 13.0985 7.99688 12.829 8.26647C12.5594 8.53605 12.1937 8.6875 11.8125 8.6875C11.4313 8.6875 11.0656 8.53605 10.796 8.26647C10.5265 7.99688 10.375 7.63125 10.375 7.25C10.375 6.86875 10.5265 6.50312 10.796 6.23353C11.0656 5.96395 11.4313 5.8125 11.8125 5.8125ZM17.5625 5.8125C17.9437 5.8125 18.3094 5.96395 18.579 6.23353C18.8485 6.50312 19 6.86875 19 7.25C19 7.63125 18.8485 7.99688 18.579 8.26647C18.3094 8.53605 17.9437 8.6875 17.5625 8.6875C17.1813 8.6875 16.8156 8.53605 16.546 8.26647C16.2765 7.99688 16.125 7.63125 16.125 7.25C16.125 6.86875 16.2765 6.50312 16.546 6.23353C16.8156 5.96395 17.1813 5.8125 17.5625 5.8125ZM3.1875 10.125C3.56875 10.125 3.93438 10.2765 4.20397 10.546C4.47355 10.8156 4.625 11.1813 4.625 11.5625C4.625 11.9437 4.47355 12.3094 4.20397 12.579C3.93438 12.8485 3.56875 13 3.1875 13C2.80625 13 2.44062 12.8485 2.17103 12.579C1.90145 12.3094 1.75 11.9437 1.75 11.5625C1.75 11.1813 1.90145 10.8156 2.17103 10.546C2.44062 10.2765 2.80625 10.125 3.1875 10.125ZM8.9375 10.125C9.31875 10.125 9.68438 10.2765 9.95397 10.546C10.2235 10.8156 10.375 11.1813 10.375 11.5625C10.375 11.9437 10.2235 12.3094 9.95397 12.579C9.68438 12.8485 9.31875 13 8.9375 13C8.55625 13 8.19062 12.8485 7.92103 12.579C7.65145 12.3094 7.5 11.9437 7.5 11.5625C7.5 11.1813 7.65145 10.8156 7.92103 10.546C8.19062 10.2765 8.55625 10.125 8.9375 10.125ZM14.6875 10.125C15.0687 10.125 15.4344 10.2765 15.704 10.546C15.9735 10.8156 16.125 11.1813 16.125 11.5625C16.125 11.9437 15.9735 12.3094 15.704 12.579C15.4344 12.8485 15.0687 13 14.6875 13C14.3063 13 13.9406 12.8485 13.671 12.579C13.4015 12.3094 13.25 11.9437 13.25 11.5625C13.25 11.1813 13.4015 10.8156 13.671 10.546C13.9406 10.2765 14.3063 10.125 14.6875 10.125ZM0.3125 17.3125V20.1875H37.6875V17.3125H0.3125ZM0.3125 23.0625V25.9375H37.6875V23.0625H0.3125Z" fill="url(#paint0_linear_5182_527)"/>
<defs>
<linearGradient id="paint0_linear_5182_527" x1="19" y1="0.0625" x2="19" y2="25.9375" gradientUnits="userSpaceOnUse">
<stop stop-color="#262626"/>
<stop offset="1" stop-color="#8C8C8C"/>
</linearGradient>
</defs>
</svg>
