<svg width="21" height="19" viewBox="0 0 21 19" fill="none" xmlns="http://www.w3.org/2000/svg">
<path d="M10.815 19C10.6486 19 10.5093 18.9434 10.3973 18.8302C10.2853 18.717 10.2297 18.5757 10.2305 18.4062C10.2313 18.2368 10.2869 18.0955 10.3973 17.9823C10.5078 17.8691 10.6466 17.8125 10.8138 17.8125H17.9492C18.1436 17.8125 18.3116 17.7515 18.4532 17.6296C18.5955 17.5077 18.6667 17.3478 18.6667 17.1499V8.97038C18.6667 6.74579 17.8632 4.88815 16.2563 3.39744C14.6487 1.90594 12.7299 1.16019 10.5 1.16019C8.27011 1.16019 6.35133 1.90594 4.74367 3.39744C3.13678 4.88815 2.33333 6.74579 2.33333 8.97038V15.1181C2.33333 15.2867 2.27772 15.4276 2.1665 15.5408C2.05528 15.654 1.91644 15.711 1.75 15.7118C1.27322 15.7118 0.862167 15.5475 0.516833 15.219C0.172278 14.8913 0 14.4851 0 14.0006V11.7622C0 11.4075 0.113167 11.0928 0.3395 10.8181C0.566611 10.5426 0.842333 10.319 1.16667 10.1472L1.1865 8.68775C1.2075 7.44879 1.47194 6.30088 1.97983 5.244C2.48772 4.18713 3.16594 3.26761 4.0145 2.48544C4.86306 1.70327 5.84461 1.09369 6.95917 0.65669C8.07372 0.21969 9.254 0.00079381 10.5 2.1435e-06C11.746 -0.000789523 12.9255 0.21771 14.0385 0.655502C15.1515 1.09329 16.1288 1.70209 16.9703 2.48188C17.8119 3.26167 18.4866 4.18 18.9945 5.23688C19.5024 6.29375 19.7754 7.44167 19.8135 8.68063L19.8333 10.1092C20.1429 10.2572 20.4147 10.4563 20.6488 10.7065C20.8829 10.9559 21 11.2555 21 11.6054V14.1776C21 14.5275 20.8829 14.8271 20.6488 15.0765C20.4147 15.3259 20.1429 15.5246 19.8333 15.6726V17.1499C19.8333 17.666 19.6498 18.1034 19.2827 18.4621C18.9156 18.8207 18.4711 19 17.9492 19H10.815ZM7.44917 11.3264C7.20806 11.3264 6.99806 11.2433 6.81917 11.077C6.64028 10.9108 6.55083 10.7049 6.55083 10.4595C6.55083 10.2141 6.64028 10.0043 6.81917 9.83013C6.99806 9.65596 7.20806 9.56888 7.44917 9.56888C7.69028 9.56888 7.89989 9.65596 8.078 9.83013C8.25611 10.0043 8.34556 10.2141 8.34633 10.4595C8.34711 10.7049 8.25767 10.9108 8.078 11.077C7.89833 11.2433 7.68833 11.3264 7.448 11.3264M13.552 11.3264C13.3109 11.3264 13.1009 11.2433 12.922 11.077C12.7431 10.9108 12.6537 10.7049 12.6537 10.4595C12.6537 10.2141 12.7431 10.0043 12.922 9.83013C13.1009 9.65596 13.3109 9.56888 13.552 9.56888C13.7931 9.56888 14.0027 9.65596 14.1808 9.83013C14.3589 10.0043 14.4484 10.2141 14.4492 10.4595C14.4499 10.7049 14.3605 10.9108 14.1808 11.077C14.0012 11.2433 13.7912 11.3264 13.5508 11.3264M4.33767 9.44063C4.23189 7.66254 4.79461 6.1469 6.02583 4.89369C7.25628 3.64048 8.7675 3.01388 10.5595 3.01388C12.0653 3.01388 13.3999 3.47423 14.5635 4.39494C15.7271 5.31565 16.4372 6.52492 16.6938 8.02275C15.1484 8.00296 13.7142 7.60158 12.3912 6.81863C11.0682 6.03567 10.0532 4.94713 9.34617 3.553C9.06461 4.92338 8.47933 6.12434 7.59033 7.15588C6.70055 8.18742 5.61633 8.949 4.33767 9.44063Z" fill="#F20003"/>
</svg>
