<svg width="26" height="19" viewBox="0 0 26 19" fill="none" xmlns="http://www.w3.org/2000/svg">
<path d="M25.025 3.4504L13.1233 0.0169674C13.0624 -0.000126326 12.9987 -0.00436267 12.9361 0.00452325L1.15431 1.70371C0.834473 1.75133 0.542142 1.91311 0.330357 2.15969C0.118572 2.40627 0.00136451 2.72132 0 3.04767V15.9578C0.00136451 16.2842 0.118572 16.5992 0.330357 16.8458C0.542142 17.0924 0.834473 17.2542 1.15431 17.3018L12.9361 18.9987C12.9574 19.0004 12.9787 19.0004 13 18.9987C13.0417 18.9989 13.0832 18.9932 13.1233 18.9818L25.025 15.5551C25.3052 15.4742 25.5518 15.3036 25.7277 15.0689C25.9035 14.8343 25.9991 14.5483 26 14.2541V4.75138C25.9991 4.45716 25.9035 4.1712 25.7277 3.93657C25.5518 3.70193 25.3052 3.53131 25.025 3.4504ZM9.41379 9.05024H7.17241V1.75009L12.5517 0.97403V18.0315L7.17241 17.2554V9.95526H9.41379C9.53268 9.95526 9.6467 9.90759 9.73077 9.82273C9.81484 9.73787 9.86207 9.62277 9.86207 9.50275C9.86207 9.38274 9.81484 9.26764 9.73077 9.18278C9.6467 9.09792 9.53268 9.05024 9.41379 9.05024ZM0.896552 15.9578V3.04767C0.895444 2.93803 0.933806 2.83172 1.00451 2.74849C1.07521 2.66526 1.17344 2.61077 1.28095 2.59516L6.27586 1.87905V9.05024H4.03448C3.91559 9.05024 3.80157 9.09792 3.7175 9.18278C3.63344 9.26764 3.58621 9.38274 3.58621 9.50275C3.58621 9.62277 3.63344 9.73787 3.7175 9.82273C3.80157 9.90759 3.91559 9.95526 4.03448 9.95526H6.27586V17.1265L1.28095 16.4036C1.17459 16.3881 1.07727 16.3346 1.00672 16.2528C0.936163 16.171 0.897067 16.0663 0.896552 15.9578ZM25.1034 14.2541C25.1033 14.3523 25.0715 14.4478 25.0129 14.5262C24.9543 14.6046 24.872 14.6615 24.7784 14.6885L13.4483 17.9534V1.05209L24.7784 4.32036C24.8714 4.3472 24.9533 4.40368 25.0119 4.48136C25.0705 4.55904 25.1026 4.65376 25.1034 4.75138V14.2541Z" fill="#F20003"/>
</svg>
