<svg width="19" height="19" viewBox="0 0 19 19" fill="none" xmlns="http://www.w3.org/2000/svg">
<g clip-path="url(#clip0_5047_287)">
<path d="M17.1834 8.43748C16.9536 2.04695 15.4316 0.59375 9.5 0.59375C3.56844 0.59375 2.04636 2.04725 1.81658 8.43748C1.38581 8.54644 0.890625 8.95019 0.890625 10.2315C0.890625 11.7043 1.71119 12.1802 2.4893 12.3001C2.91502 14.9634 4.45431 16.658 7.74309 18.112C8.16525 18.2991 8.80591 18.4062 9.5 18.4062C10.1947 18.4062 10.8348 18.2991 11.2569 18.112C14.5457 16.6577 16.0847 14.9628 16.5113 12.3001C17.2888 12.1802 18.1094 11.7043 18.1094 10.2315C18.1094 8.94959 17.6142 8.54614 17.1834 8.43748ZM16.2296 11.7444L15.9879 11.7613L15.9561 11.9973C15.5542 14.9943 13.6895 16.3961 11.0138 17.5798C10.6706 17.7318 10.105 17.8223 9.5003 17.8223C8.89616 17.8223 8.33031 17.7315 7.98683 17.5798C5.3108 16.3964 3.44613 14.9943 3.04445 11.9973L3.01328 11.7613L2.77103 11.7444C1.881 11.682 1.48438 11.2153 1.48438 10.2315C1.48438 9.40441 1.69486 8.98552 2.11108 8.98552C2.13146 8.98552 2.15274 8.98641 2.17491 8.98819C2.23161 9.29041 2.299 9.51069 2.37945 9.65794C2.58311 10.029 2.96637 10.2312 3.00912 10.2529L3.52123 10.5123L3.439 9.95125C3.43841 9.94502 3.35261 9.3483 3.38378 8.53664C3.61802 5.19412 3.82909 4.97414 5.18878 4.97414C5.54652 4.97414 5.98767 5.00264 6.49919 5.0353C7.28709 5.08577 8.26827 5.1487 9.5003 5.1487C10.7323 5.1487 11.7135 5.08577 12.5014 5.035C13.0129 5.00234 13.4541 4.97384 13.8112 4.97384C15.1715 4.97384 15.3826 5.19442 15.6156 8.53456C15.6465 9.35097 15.561 9.94502 15.5598 9.95095L15.477 10.5123L15.9897 10.2526C16.033 10.2309 16.416 10.0287 16.6194 9.65764C16.7004 9.51009 16.7678 9.29011 16.8251 8.98789C17.2844 8.95345 17.5144 9.36374 17.515 10.2312C17.5156 11.2156 17.119 11.6823 16.2296 11.7444Z" fill="#F20003"/>
<path d="M11.9047 14.1011H7.09561C6.82842 14.1011 6.82842 14.3555 6.82842 14.3555C6.82842 15.3738 8.16436 15.8824 9.5003 15.8824C10.8362 15.8824 12.1722 15.3738 12.1722 14.3555C12.1719 14.3555 12.1719 14.1011 11.9047 14.1011ZM7.42188 9.24216C7.42188 9.07828 7.38833 8.92361 7.3343 8.77844C7.63978 9.0002 7.88619 9.29886 8.01562 9.68688C8.01562 7.31247 3.85938 7.31247 3.85938 9.3906C4.05294 8.9061 4.50122 8.5831 5.03589 8.42516C4.85155 8.65766 4.75085 8.94545 4.75 9.24216C4.75 9.59647 4.89075 9.93627 5.14129 10.1868C5.39182 10.4373 5.73162 10.5781 6.08594 10.5781C6.44025 10.5781 6.78005 10.4373 7.03059 10.1868C7.28112 9.93627 7.42188 9.59647 7.42188 9.24216ZM10.9844 9.68688C11.1138 9.29856 11.3596 9.0002 11.6657 8.77844C11.6092 8.92659 11.5796 9.08361 11.5781 9.24216C11.5781 9.59647 11.7189 9.93627 11.9694 10.1868C12.2199 10.4373 12.5597 10.5781 12.9141 10.5781C13.2684 10.5781 13.6082 10.4373 13.8587 10.1868C14.1093 9.93627 14.25 9.59647 14.25 9.24216C14.2489 8.94549 14.1482 8.65777 13.9641 8.42516C14.4988 8.5831 14.9471 8.9061 15.1406 9.3906C15.1406 7.31247 10.9844 7.31247 10.9844 9.68688ZM9.5 13.2105C10.7409 13.2099 11.3614 12.3199 10.7409 12.3199H8.25936C7.63919 12.3199 8.25906 13.2105 9.5 13.2105Z" fill="#F20003"/>
</g>
<defs>
<clipPath id="clip0_5047_287">
<rect width="19" height="19" fill="white"/>
</clipPath>
</defs>
</svg>
