<svg width="26" height="18" viewBox="0 0 26 18" fill="none" xmlns="http://www.w3.org/2000/svg">
<path d="M25.9526 6.56002L24.4103 2.71926C24.2966 2.43355 24.0992 2.18859 23.8437 2.01633C23.5882 1.84406 23.2866 1.7525 22.9781 1.75358H18.9492V0.658416C18.9492 0.483793 18.8795 0.316322 18.7555 0.192845C18.6316 0.0693685 18.4634 0 18.2881 0H1.54237C1.13331 0 0.741002 0.16186 0.451751 0.449973C0.1625 0.738086 0 1.12885 0 1.5363V13.8267C0 14.2342 0.1625 14.6249 0.451751 14.9131C0.741002 15.2012 1.13331 15.363 1.54237 15.363H3.59153C3.74324 16.1072 4.14858 16.7763 4.73888 17.2569C5.32918 17.7375 6.06812 18 6.83051 18C7.5929 18 8.33184 17.7375 8.92214 17.2569C9.51243 16.7763 9.91778 16.1072 10.0695 15.363H15.9305C16.0822 16.1072 16.4876 16.7763 17.0779 17.2569C17.6682 17.7375 18.4071 18 19.1695 18C19.9319 18 20.6708 17.7375 21.2611 17.2569C21.8514 16.7763 22.2568 16.1072 22.4085 15.363H24.4576C24.8667 15.363 25.259 15.2012 25.5483 14.9131C25.8375 14.6249 26 14.2342 26 13.8267V6.80363C25.9999 6.72017 25.9838 6.6375 25.9526 6.56002ZM18.9492 3.07261H22.9792C23.0233 3.07256 23.0664 3.08572 23.1029 3.11037C23.1395 3.13503 23.1677 3.17004 23.1841 3.21087L24.3629 6.14521H18.9492V3.07261ZM1.32203 1.5363C1.32203 1.4781 1.34525 1.42227 1.38657 1.38111C1.42789 1.33995 1.48394 1.31683 1.54237 1.31683H17.6271V8.77888H1.32203V1.5363ZM6.83051 16.6799C6.4383 16.6799 6.05489 16.564 5.72878 16.347C5.40267 16.1299 5.1485 15.8214 4.99841 15.4605C4.84832 15.0996 4.80904 14.7024 4.88556 14.3193C4.96208 13.9361 5.15095 13.5842 5.42828 13.3079C5.70561 13.0317 6.05896 12.8435 6.44363 12.7673C6.82831 12.6911 7.22703 12.7302 7.58939 12.8797C7.95174 13.0292 8.26145 13.2824 8.47936 13.6072C8.69726 13.9321 8.81356 14.314 8.81356 14.7046C8.81356 15.2285 8.60463 15.7309 8.23274 16.1013C7.86084 16.4718 7.35645 16.6799 6.83051 16.6799ZM15.9305 14.0462H10.0695C9.91778 13.302 9.51243 12.6329 8.92214 12.1524C8.33184 11.6718 7.5929 11.4092 6.83051 11.4092C6.06812 11.4092 5.32918 11.6718 4.73888 12.1524C4.14858 12.6329 3.74324 13.302 3.59153 14.0462H1.54237C1.48394 14.0462 1.42789 14.0231 1.38657 13.9819C1.34525 13.9408 1.32203 13.8849 1.32203 13.8267V10.0957H17.6271V11.7944C17.1952 12.0221 16.8192 12.342 16.5259 12.7312C16.2326 13.1205 16.0293 13.5695 15.9305 14.0462ZM19.1695 16.6799C18.7773 16.6799 18.3939 16.564 18.0678 16.347C17.7417 16.1299 17.4875 15.8214 17.3374 15.4605C17.1873 15.0996 17.148 14.7024 17.2245 14.3193C17.3011 13.9361 17.4899 13.5842 17.7673 13.3079C18.0446 13.0317 18.3979 12.8435 18.7826 12.7673C19.1673 12.6911 19.566 12.7302 19.9284 12.8797C20.2907 13.0292 20.6004 13.2824 20.8183 13.6072C21.0362 13.9321 21.1525 14.314 21.1525 14.7046C21.1525 15.2285 20.9436 15.7309 20.5717 16.1013C20.1998 16.4718 19.6954 16.6799 19.1695 16.6799ZM24.678 13.8267C24.678 13.8849 24.6548 13.9408 24.6134 13.9819C24.5721 14.0231 24.5161 14.0462 24.4576 14.0462H22.4085C22.2551 13.3031 21.8492 12.6354 21.2592 12.1556C20.6692 11.6759 19.9311 11.4134 19.1695 11.4125C19.0957 11.4125 19.0219 11.4125 18.9492 11.4202V7.46205H24.678V13.8267Z" fill="#F20003"/>
</svg>
